<svg xmlns="http://www.w3.org/2000/svg" xmlns:xlink="http://www.w3.org/1999/xlink" width="250" zoomAndPan="magnify" viewBox="0 0 187.5 187.499992" height="250" preserveAspectRatio="xMidYMid meet" version="1.0"><defs><clipPath id="id1"><path d="M 0 0 L 187 0 L 187 187 L 0 187 Z M 0 0 " clip-rule="nonzero"/></clipPath></defs><g clip-path="url(#id1)"><path fill="#ffffff" d="M 93.75 0 C 42.054688 0 0 42.054688 0 93.75 C 0 145.445312 42.054688 187.5 93.75 187.5 C 145.445312 187.5 187.5 145.445312 187.5 93.75 C 187.5 42.054688 145.445312 0 93.75 0 Z M 93.75 175 C 48.945312 175 12.5 138.554688 12.5 93.75 C 12.5 48.945312 48.945312 12.5 93.75 12.5 C 138.554688 12.5 175 48.945312 175 93.75 C 175 138.554688 138.554688 175 93.75 175 Z M 93.75 175 " fill-opacity="1" fill-rule="nonzero"/></g><path fill="#ffffff" d="M 126.449219 87.5 L 100 87.5 L 100 61.050781 C 100 57.597656 97.203125 54.800781 93.75 54.800781 C 90.296875 54.800781 87.5 57.597656 87.5 61.050781 L 87.5 87.5 L 61.050781 87.5 C 57.597656 87.5 54.800781 90.296875 54.800781 93.75 C 54.800781 97.203125 57.597656 100 61.050781 100 L 87.5 100 L 87.5 126.449219 C 87.5 129.902344 90.296875 132.699219 93.75 132.699219 C 97.203125 132.699219 100 129.902344 100 126.449219 L 100 100 L 126.449219 100 C 129.902344 100 132.699219 97.203125 132.699219 93.75 C 132.699219 90.296875 129.902344 87.5 126.449219 87.5 Z M 126.449219 87.5 " fill-opacity="1" fill-rule="nonzero"/></svg>