<svg xmlns="http://www.w3.org/2000/svg" xmlns:xlink="http://www.w3.org/1999/xlink" width="250" zoomAndPan="magnify" viewBox="0 0 187.5 187.499992" height="250" preserveAspectRatio="xMidYMid meet" version="1.0"><defs><clipPath id="id1"><path d="M 58 171 L 67 171 L 67 187 L 58 187 Z M 58 171 " clip-rule="nonzero"/></clipPath><clipPath id="id2"><path d="M 120 171 L 129 171 L 129 187 L 120 187 Z M 120 171 " clip-rule="nonzero"/></clipPath></defs><path fill="#ffffff" d="M 58.402344 0 L 128.761719 0 C 137.445312 0 144.457031 7.039062 144.457031 15.625 L 144.457031 164.0625 C 144.457031 172.6875 137.445312 179.6875 128.761719 179.6875 L 58.402344 179.6875 C 49.722656 179.6875 42.710938 172.648438 42.710938 164.0625 L 42.710938 15.625 C 42.710938 7 49.722656 0 58.402344 0 Z M 50.535156 164.0625 C 50.535156 168.335938 54.082031 171.875 58.402344 171.875 L 128.761719 171.875 C 133.125 171.875 136.628906 168.375 136.628906 164.0625 L 136.628906 15.625 C 136.628906 11.351562 133.082031 7.8125 128.761719 7.8125 L 58.402344 7.8125 C 54.042969 7.8125 50.535156 11.3125 50.535156 15.625 Z M 50.535156 164.0625 " fill-opacity="1" fill-rule="nonzero"/><g clip-path="url(#id1)"><path fill="#ffffff" d="M 58.363281 171.875 L 66.191406 171.875 L 66.191406 187.5 L 58.363281 187.5 Z M 58.363281 171.875 " fill-opacity="1" fill-rule="evenodd"/></g><g clip-path="url(#id2)"><path fill="#ffffff" d="M 120.976562 171.875 L 128.800781 171.875 L 128.800781 187.5 L 120.976562 187.5 Z M 120.976562 171.875 " fill-opacity="1" fill-rule="evenodd"/></g><path fill="#ffffff" d="M 42.710938 62.5 L 144.457031 62.5 L 144.457031 70.3125 L 42.710938 70.3125 Z M 42.710938 62.5 " fill-opacity="1" fill-rule="evenodd"/><path fill="#ffffff" d="M 58.363281 31.25 L 66.191406 31.25 L 66.191406 54.6875 L 58.363281 54.6875 Z M 58.363281 31.25 " fill-opacity="1" fill-rule="evenodd"/><path fill="#ffffff" d="M 58.363281 78.125 L 66.191406 78.125 L 66.191406 101.5625 L 58.363281 101.5625 Z M 58.363281 78.125 " fill-opacity="1" fill-rule="evenodd"/></svg>