<svg xmlns="http://www.w3.org/2000/svg" xmlns:xlink="http://www.w3.org/1999/xlink" width="500" zoomAndPan="magnify" viewBox="0 0 375 74.999997" height="100" preserveAspectRatio="xMidYMid meet" version="1.0"><defs><g/></defs><g fill="#000000" fill-opacity="1"><g transform="translate(0.0000075, 52.55376)"><g><path d="M 6.796875 0 L 9.960938 0 L 9.960938 -19.382812 L 36.738281 -19.382812 L 36.738281 -21.769531 L 9.960938 -21.769531 L 9.960938 -39.121094 L 49.261719 -39.121094 L 49.261719 -41.746094 L 6.796875 -41.746094 Z M 6.796875 0 "/></g></g></g><g fill="#000000" fill-opacity="1"><g transform="translate(52.063151, 52.55376)"><g><path d="M 6.796875 0 L 9.839844 0 L 9.839844 -17.832031 L 33.515625 -17.890625 L 48.785156 0 L 52.421875 0 L 36.917969 -18.070312 C 46.28125 -18.605469 51.945312 -23.734375 51.945312 -30 C 51.945312 -37.09375 44.847656 -41.746094 33.339844 -41.746094 L 6.796875 -41.746094 Z M 9.839844 -20.15625 L 9.839844 -39.121094 L 33.339844 -39.121094 C 42.761719 -39.121094 48.785156 -35.484375 48.785156 -29.757812 C 48.785156 -24.214844 42.34375 -20.15625 33.097656 -20.15625 Z M 9.839844 -20.15625 "/></g></g></g><g fill="#000000" fill-opacity="1"><g transform="translate(108.599068, 52.55376)"><g><path d="M 7.097656 0 L 10.378906 0 L 10.378906 -41.746094 L 7.097656 -41.746094 Z M 7.097656 0 "/></g></g></g><g fill="#000000" fill-opacity="1"><g transform="translate(126.251629, 52.55376)"><g><path d="M 6.796875 0 L 31.550781 0 C 48.128906 0 59.519531 -8.707031 59.519531 -20.875 C 59.519531 -33.039062 48.128906 -41.746094 31.550781 -41.746094 L 6.796875 -41.746094 Z M 9.960938 -2.625 L 9.960938 -39.183594 L 31.550781 -39.183594 C 45.207031 -39.183594 56.417969 -31.550781 56.417969 -20.875 C 56.417969 -10.257812 45.207031 -2.625 31.550781 -2.625 Z M 9.960938 -2.625 "/></g></g></g><g fill="#000000" fill-opacity="1"><g transform="translate(190.540362, 52.55376)"><g><path d="M 34.171875 0.714844 C 49.441406 0.714844 61.726562 -7.277344 62.5625 -19.382812 L 69.480469 -19.382812 L 69.480469 -21.828125 L 36.023438 -21.828125 L 36.023438 -19.382812 L 59.222656 -19.382812 C 58.625 -8.707031 47.890625 -1.910156 34.171875 -1.910156 C 19.5 -1.910156 7.992188 -8.886719 7.992188 -20.277344 C 7.992188 -31.371094 19.679688 -39.777344 35.066406 -39.777344 C 43.894531 -39.777344 52.183594 -37.214844 56.179688 -34.113281 L 58.207031 -36.320312 C 53.734375 -39.601562 47.175781 -42.402344 35.007812 -42.402344 C 17.832031 -42.402344 4.652344 -32.503906 4.652344 -20.277344 C 4.652344 -7.695312 17.652344 0.714844 34.171875 0.714844 Z M 34.171875 0.714844 "/></g></g></g><g fill="#000000" fill-opacity="1"><g transform="translate(262.522282, 52.55376)"><g><path d="M 6.796875 0 L 51.230469 0 L 51.230469 -2.625 L 9.839844 -2.625 L 9.839844 -20.097656 L 40.914062 -20.097656 L 40.914062 -22.484375 L 9.839844 -22.484375 L 9.839844 -39.121094 L 50.277344 -39.121094 L 50.277344 -41.746094 L 6.796875 -41.746094 Z M 6.796875 0 "/></g></g></g><g fill="#000000" fill-opacity="1"><g transform="translate(318.461827, 52.55376)"><g><path d="M 6.796875 0 L 9.839844 0 L 9.839844 -17.832031 L 33.515625 -17.890625 L 48.785156 0 L 52.421875 0 L 36.917969 -18.070312 C 46.28125 -18.605469 51.945312 -23.734375 51.945312 -30 C 51.945312 -37.09375 44.847656 -41.746094 33.339844 -41.746094 L 6.796875 -41.746094 Z M 9.839844 -20.15625 L 9.839844 -39.121094 L 33.339844 -39.121094 C 42.761719 -39.121094 48.785156 -35.484375 48.785156 -29.757812 C 48.785156 -24.214844 42.34375 -20.15625 33.097656 -20.15625 Z M 9.839844 -20.15625 "/></g></g></g></svg>