<svg xmlns="http://www.w3.org/2000/svg" xmlns:xlink="http://www.w3.org/1999/xlink" width="250" zoomAndPan="magnify" viewBox="0 0 187.5 187.499992" height="250" preserveAspectRatio="xMidYMid meet" version="1.0"><defs><clipPath id="id1"><path d="M 0.175781 41.019531 L 187 41.019531 L 187 171.984375 L 0.175781 171.984375 Z M 0.175781 41.019531 " clip-rule="nonzero"/></clipPath></defs><path fill="#ffffff" d="M 54.226562 16.75 L 54.578125 16.789062 C 69.625 18.496094 84.128906 23.851562 95.828125 31.632812 L 93.75 34.742188 L 95.828125 31.632812 C 96.914062 32.359375 97.5 33.554688 97.496094 34.769531 L 97.496094 153.109375 C 97.496094 155.171875 95.816406 156.84375 93.75 156.84375 C 92.96875 156.84375 92.242188 156.609375 91.644531 156.199219 C 80.980469 149.109375 68.1875 144.371094 54.679688 142.839844 C 54.527344 142.824219 54.375 142.804688 54.226562 142.789062 L 54.226562 135.289062 C 54.648438 135.332031 55.074219 135.375 55.5 135.425781 C 67.863281 136.828125 79.667969 140.6875 90.007812 146.453125 L 90.007812 36.773438 C 79.679688 30.277344 67.179688 25.800781 54.226562 24.257812 Z M 13.496094 22.238281 C 26.40625 16.78125 40.542969 15.253906 54.226562 16.75 L 54.226562 24.257812 C 54.070312 24.242188 53.914062 24.222656 53.761719 24.203125 C 41.886719 22.859375 29.667969 23.980469 18.441406 28.28125 L 18.441406 138.894531 C 30.328125 135.171875 42.511719 134.125 54.226562 135.289062 L 54.226562 142.789062 C 41.722656 141.4375 28.621094 142.828125 16.035156 147.628906 L 16.035156 147.632812 C 14.101562 148.371094 11.941406 147.40625 11.203125 145.476562 C 11.023438 145.015625 10.945312 144.539062 10.957031 144.074219 L 10.957031 25.777344 C 10.957031 24.132812 12.019531 22.738281 13.496094 22.238281 " fill-opacity="1" fill-rule="nonzero"/><path fill="#ffffff" d="M 169.058594 28.28125 C 157.835938 23.980469 145.617188 22.859375 133.742188 24.203125 C 133.585938 24.222656 133.433594 24.242188 133.277344 24.257812 L 133.277344 16.75 C 146.960938 15.253906 161.097656 16.78125 174.007812 22.238281 C 175.484375 22.738281 176.546875 24.132812 176.546875 25.777344 L 176.546875 144.074219 C 176.554688 144.539062 176.476562 145.015625 176.300781 145.476562 C 175.5625 147.40625 173.398438 148.371094 171.46875 147.632812 L 171.46875 147.628906 C 158.878906 142.828125 145.777344 141.4375 133.277344 142.789062 L 133.277344 135.289062 C 144.992188 134.125 157.171875 135.171875 169.058594 138.894531 Z M 133.277344 24.257812 C 120.324219 25.800781 107.820312 30.277344 97.496094 36.773438 L 97.496094 146.453125 C 107.835938 140.6875 119.640625 136.828125 132.003906 135.425781 C 132.425781 135.375 132.851562 135.332031 133.277344 135.289062 L 133.277344 142.789062 C 133.125 142.804688 132.972656 142.824219 132.824219 142.839844 C 119.3125 144.371094 106.523438 149.109375 95.859375 156.199219 C 95.257812 156.609375 94.53125 156.84375 93.75 156.84375 C 91.683594 156.84375 90.007812 155.171875 90.007812 153.109375 L 90.007812 34.769531 C 90 33.554688 90.585938 32.359375 91.675781 31.632812 L 93.75 34.742188 L 91.675781 31.632812 C 103.375 23.851562 117.875 18.496094 132.921875 16.789062 L 133.277344 16.75 L 133.277344 24.257812 " fill-opacity="1" fill-rule="nonzero"/><g clip-path="url(#id1)"><path fill="#ffffff" d="M 178.507812 41.597656 C 176.609375 40.789062 174.417969 41.671875 173.609375 43.566406 C 172.804688 45.460938 173.6875 47.648438 175.585938 48.453125 L 179.839844 50.273438 L 179.839844 156.589844 L 170.285156 152.945312 C 158.421875 148.421875 145.582031 146.960938 133.070312 148.382812 C 120.492188 149.8125 108.246094 154.148438 97.65625 161.195312 L 93.75 163.792969 L 89.847656 161.195312 C 79.257812 154.148438 67.007812 149.8125 54.429688 148.382812 C 41.921875 146.960938 29.078125 148.421875 17.214844 152.945312 L 7.664062 156.589844 L 7.664062 50.273438 L 11.917969 48.453125 C 13.8125 47.648438 14.699219 45.460938 13.890625 43.566406 C 13.085938 41.671875 10.890625 40.789062 8.992188 41.597656 L 2.695312 44.289062 C 1.230469 44.792969 0.175781 46.183594 0.175781 47.820312 L 0.175781 161.945312 C 0.167969 162.410156 0.246094 162.886719 0.421875 163.347656 C 1.160156 165.273438 3.324219 166.238281 5.253906 165.503906 L 5.253906 165.5 L 19.878906 159.921875 C 30.617188 155.828125 42.257812 154.507812 53.613281 155.796875 C 64.996094 157.09375 76.089844 161.019531 85.695312 167.410156 L 91.605469 171.34375 C 92.832031 172.199219 94.507812 172.269531 95.828125 171.390625 L 101.808594 167.410156 C 111.410156 161.019531 122.507812 157.09375 133.890625 155.796875 C 145.246094 154.507812 156.886719 155.828125 167.625 159.921875 L 182.074219 165.433594 C 182.535156 165.636719 183.046875 165.75 183.582031 165.75 C 185.648438 165.75 187.328125 164.078125 187.328125 162.011719 L 187.328125 47.886719 C 187.351562 46.414062 186.496094 45 185.054688 44.382812 L 183.582031 47.820312 L 185.042969 44.390625 L 178.507812 41.597656 " fill-opacity="1" fill-rule="nonzero"/></g><path fill="#ffffff" d="M 161.292969 84.734375 C 161.292969 90.308594 159.664062 95.507812 156.855469 99.890625 C 154.179688 104.0625 150.425781 107.488281 145.984375 109.769531 L 145.984375 111.019531 C 145.984375 112.050781 145.148438 112.886719 144.113281 112.886719 L 133.09375 112.886719 L 133.09375 109.148438 L 142.242188 109.148438 L 142.242188 108.636719 C 142.230469 107.921875 142.636719 107.230469 143.328125 106.914062 L 144.113281 108.609375 L 143.332031 106.914062 C 147.597656 104.949219 151.199219 101.796875 153.714844 97.875 C 155.828125 94.578125 157.167969 90.734375 157.480469 86.601562 L 133.09375 86.601562 L 133.09375 82.867188 L 159.421875 82.867188 C 160.457031 82.867188 161.292969 83.703125 161.292969 84.734375 Z M 133.09375 112.886719 L 122.070312 112.886719 C 121.035156 112.886719 120.199219 112.050781 120.199219 111.019531 L 120.199219 109.769531 C 115.757812 107.488281 112.003906 104.0625 109.328125 99.890625 C 106.519531 95.507812 104.890625 90.308594 104.890625 84.734375 C 104.890625 83.703125 105.730469 82.867188 106.761719 82.867188 L 133.09375 82.867188 L 133.09375 86.601562 L 108.703125 86.601562 C 109.015625 90.734375 110.355469 94.578125 112.46875 97.875 C 114.964844 101.761719 118.527344 104.898438 122.746094 106.867188 C 123.445312 107.136719 123.941406 107.816406 123.941406 108.609375 L 123.941406 109.148438 L 133.09375 109.148438 L 133.09375 112.886719 " fill-opacity="1" fill-rule="nonzero"/><path fill="#ffffff" d="M 128.402344 67.667969 C 123.613281 66.226562 121.296875 63.765625 119.019531 61.347656 C 118.644531 60.945312 118.265625 60.546875 117.878906 60.15625 L 117.878906 55.207031 C 119.386719 56.289062 120.558594 57.535156 121.742188 58.792969 C 123.949219 61.136719 126.203125 63.53125 131.445312 64.582031 C 131.648438 64.613281 131.847656 64.675781 132.039062 64.777344 C 132.953125 65.257812 133.304688 66.390625 132.824219 67.300781 L 132.816406 67.300781 L 127.976562 76.464844 C 127.886719 76.675781 127.75 76.871094 127.574219 77.042969 C 126.839844 77.765625 125.652344 77.753906 124.929688 77.019531 L 124.933594 77.015625 C 122.382812 74.417969 120.082031 73.316406 117.878906 72.730469 L 117.878906 68.875 C 120.347656 69.398438 122.902344 70.320312 125.75 72.691406 Z M 117.878906 60.15625 C 116.425781 58.691406 114.785156 57.351562 112.214844 56.507812 L 107.355469 65.707031 C 110.054688 67.640625 112.554688 68.015625 115.070312 68.394531 C 116 68.535156 116.933594 68.675781 117.878906 68.875 L 117.878906 72.730469 C 116.742188 72.421875 115.625 72.253906 114.515625 72.089844 C 111.117188 71.574219 107.75 71.066406 103.808594 67.664062 C 103.121094 67.117188 102.898438 66.140625 103.324219 65.335938 L 103.328125 65.339844 L 109.550781 53.554688 C 109.90625 52.75 110.792969 52.285156 111.683594 52.488281 L 111.683594 52.496094 C 114.375 53.113281 116.308594 54.074219 117.878906 55.207031 L 117.878906 60.15625 " fill-opacity="1" fill-rule="nonzero"/><path fill="#ffffff" d="M 133.933594 69.152344 C 133.269531 68.820312 132.484375 68.90625 131.90625 69.375 C 130.859375 70.238281 131.042969 71.871094 132.25 72.488281 C 133.269531 73.003906 134.257812 73.59375 135.179688 74.269531 C 135.8125 74.722656 136.617188 74.753906 137.277344 74.347656 C 138.398438 73.644531 138.457031 72.035156 137.390625 71.253906 C 136.296875 70.457031 135.140625 69.761719 133.933594 69.152344 Z M 142.316406 84.792969 C 142.644531 85.890625 143.855469 86.4375 144.898438 85.964844 C 145.746094 85.566406 146.167969 84.636719 145.910156 83.742188 L 145.886719 83.664062 L 145.839844 83.511719 L 145.820312 83.433594 L 145.769531 83.28125 L 145.722656 83.132812 L 145.699219 83.054688 L 145.675781 82.980469 L 145.625 82.828125 L 145.601562 82.753906 L 145.574219 82.675781 L 145.546875 82.601562 L 145.5 82.453125 L 145.445312 82.304688 L 145.421875 82.234375 L 145.394531 82.15625 L 145.367188 82.082031 L 145.339844 82.011719 L 145.257812 81.789062 L 145.230469 81.71875 L 145.175781 81.570312 L 145.148438 81.5 L 145.117188 81.425781 L 145.089844 81.351562 L 145.0625 81.28125 L 145.03125 81.207031 L 144.976562 81.066406 L 144.945312 80.992188 L 144.917969 80.921875 L 144.886719 80.847656 L 144.855469 80.777344 L 144.84375 80.746094 C 144.175781 79.199219 141.972656 79.246094 141.367188 80.820312 C 141.199219 81.28125 141.207031 81.757812 141.398438 82.210938 L 141.40625 82.234375 L 141.460938 82.351562 L 141.507812 82.476562 L 141.535156 82.539062 L 141.558594 82.601562 L 141.585938 82.660156 L 141.609375 82.722656 L 141.707031 82.972656 L 141.753906 83.097656 L 141.777344 83.164062 L 141.847656 83.351562 L 141.871094 83.417969 L 141.917969 83.542969 L 141.9375 83.609375 L 141.960938 83.671875 L 141.984375 83.738281 L 142.003906 83.800781 L 142.027344 83.867188 L 142.046875 83.929688 L 142.070312 83.996094 L 142.089844 84.066406 L 142.113281 84.128906 L 142.152344 84.261719 L 142.199219 84.394531 L 142.21875 84.457031 L 142.238281 84.527344 L 142.316406 84.792969 " fill-opacity="1" fill-rule="nonzero"/><path fill="#ffffff" d="M 133.066406 72.304688 C 132.496094 71.945312 131.800781 71.925781 131.203125 72.226562 C 129.925781 72.898438 129.847656 74.691406 131.066406 75.464844 C 131.972656 76.039062 132.796875 76.707031 133.496094 77.519531 C 134.625 78.804688 136.738281 78.042969 136.78125 76.324219 C 136.785156 75.855469 136.628906 75.421875 136.320312 75.066406 C 135.378906 73.980469 134.28125 73.078125 133.066406 72.304688 " fill-opacity="1" fill-rule="nonzero"/><path fill="#ffffff" d="M 131.253906 75.503906 C 130.683594 75.140625 129.984375 75.125 129.386719 75.425781 C 128.113281 76.097656 128.03125 77.886719 129.253906 78.660156 C 130.011719 79.144531 130.523438 79.714844 130.835938 80.5625 C 131.253906 81.671875 132.5625 82.113281 133.574219 81.5 C 134.335938 81.023438 134.652344 80.097656 134.34375 79.257812 C 133.75 77.644531 132.699219 76.417969 131.253906 75.503906 " fill-opacity="1" fill-rule="nonzero"/><path fill="#ffffff" d="M 25.746094 45.765625 C 24.796875 46.167969 24.351562 47.261719 24.757812 48.210938 C 25.160156 49.15625 26.257812 49.597656 27.207031 49.195312 C 35.816406 45.515625 45.316406 44.511719 54.527344 45.554688 C 64.558594 46.695312 74.230469 50.261719 82.03125 55.453125 C 82.890625 56.027344 84.054688 55.792969 84.628906 54.9375 C 85.199219 54.078125 84.96875 52.917969 84.105469 52.34375 C 75.835938 46.839844 65.578125 43.054688 54.9375 41.847656 C 45.128906 40.734375 34.980469 41.816406 25.746094 45.765625 " fill-opacity="1" fill-rule="nonzero"/><path fill="#ffffff" d="M 25.746094 59.804688 C 24.796875 60.207031 24.351562 61.300781 24.757812 62.246094 C 25.160156 63.195312 26.257812 63.636719 27.207031 63.234375 C 35.816406 59.554688 45.316406 58.550781 54.527344 59.59375 C 64.558594 60.730469 74.230469 64.300781 82.03125 69.492188 C 82.890625 70.0625 84.054688 69.835938 84.628906 68.976562 C 85.199219 68.117188 84.96875 66.957031 84.105469 66.386719 C 75.835938 60.878906 65.578125 57.09375 54.9375 55.886719 C 45.128906 54.773438 34.980469 55.855469 25.746094 59.804688 " fill-opacity="1" fill-rule="nonzero"/><path fill="#ffffff" d="M 25.746094 73.84375 C 24.796875 74.246094 24.351562 75.339844 24.757812 76.289062 C 25.160156 77.234375 26.257812 77.675781 27.207031 77.273438 C 35.816406 73.589844 45.316406 72.589844 54.527344 73.632812 C 64.558594 74.769531 74.230469 78.339844 82.03125 83.53125 C 82.890625 84.105469 84.054688 83.871094 84.628906 83.011719 C 85.199219 82.15625 84.96875 80.996094 84.105469 80.421875 C 75.835938 74.917969 65.578125 71.132812 54.9375 69.925781 C 45.128906 68.8125 34.980469 69.894531 25.746094 73.84375 " fill-opacity="1" fill-rule="nonzero"/><path fill="#ffffff" d="M 25.746094 87.878906 C 24.796875 88.285156 24.351562 89.378906 24.757812 90.328125 C 25.160156 91.273438 26.257812 91.714844 27.207031 91.3125 C 35.816406 87.628906 45.316406 86.625 54.527344 87.671875 C 64.558594 88.808594 74.230469 92.378906 82.03125 97.570312 C 82.890625 98.140625 84.054688 97.910156 84.628906 97.050781 C 85.199219 96.191406 84.96875 95.035156 84.105469 94.460938 C 75.835938 88.957031 65.578125 85.171875 54.9375 83.964844 C 45.128906 82.851562 34.980469 83.933594 25.746094 87.878906 " fill-opacity="1" fill-rule="nonzero"/><path fill="#ffffff" d="M 25.746094 101.921875 C 24.796875 102.324219 24.351562 103.417969 24.757812 104.363281 C 25.160156 105.3125 26.257812 105.75 27.207031 105.347656 C 35.816406 101.667969 45.316406 100.664062 54.527344 101.710938 C 64.558594 102.847656 74.230469 106.417969 82.03125 111.609375 C 82.890625 112.179688 84.054688 111.949219 84.628906 111.089844 C 85.199219 110.234375 84.96875 109.070312 84.105469 108.5 C 75.835938 102.996094 65.578125 99.207031 54.9375 98 C 45.128906 96.890625 34.980469 97.972656 25.746094 101.921875 " fill-opacity="1" fill-rule="nonzero"/><path fill="#ffffff" d="M 25.746094 115.957031 C 24.796875 116.363281 24.351562 117.457031 24.757812 118.402344 C 25.160156 119.347656 26.257812 119.789062 27.207031 119.390625 C 35.816406 115.707031 45.316406 114.703125 54.527344 115.746094 C 64.558594 116.886719 74.230469 120.453125 82.03125 125.648438 C 82.890625 126.21875 84.054688 125.988281 84.628906 125.128906 C 85.199219 124.269531 84.96875 123.109375 84.105469 122.539062 C 75.835938 117.03125 65.578125 113.246094 54.9375 112.039062 C 45.128906 110.929688 34.980469 112.007812 25.746094 115.957031 " fill-opacity="1" fill-rule="nonzero"/></svg>